<svg data-v-fde0c5aa="" xmlns="http://www.w3.org/2000/svg" viewBox="0 0 300 300" class="iconAboveSlogan"><!----><defs data-v-fde0c5aa=""><!----></defs><rect data-v-fde0c5aa="" fill="#EBCF76" x="0" y="0" width="300px" height="300px" class="logo-background-square"></rect><defs data-v-fde0c5aa=""><!----></defs><g data-v-fde0c5aa="" id="33fb08e0-25d6-416c-a6d7-3dfb50416aa9" fill="#FEFEFE" transform="matrix(4.637887954711914,0,0,4.637887954711914,16.707099716395025,161.6165340062047)"><path d="M4.09 10.50C4.26 10.61 4.61 10.68 4.86 10.68C5.38 10.68 5.78 10.43 6.05 9.79L8.16 3.14L8.65 10.50C8.82 10.61 9.17 10.68 9.42 10.68C9.94 10.68 10.35 10.43 10.61 9.79L11.94 6.73C12.71 4.96 13.87 2.16 13.87 0.59C13.87-0.11 13.59-0.56 12.91-0.56C12.52-0.56 12.07-0.42 11.84-0.20C12.85 1.44 12.00 4.33 11.30 6.08L10.28 8.62L9.77 0.15C9.63 0.06 9.34 0 9.11 0C8.68 0 8.27 0.21 8.09 0.76L5.73 8.23L5.63 0.77L5.70 0.77C6.02 0.77 6.19 0.49 6.19 0.22C6.19 0.08 6.13-0.06 5.99-0.14C5.39 0.20 4.20-0.42 3.04-0.42C1.39-0.42 0.71 0.59 0.71 1.47C0.71 2.17 1.13 2.80 1.85 2.80C2.04 2.80 2.24 2.76 2.45 2.66C2.28 2.46 2.17 2.16 2.17 1.85C2.17 1.20 2.62 0.50 3.84 0.48ZM16.66 3.37C14.55 3.37 13.08 6.02 13.08 8.13C13.08 9.45 13.69 10.61 15.13 10.61C17.33 10.61 18.83 7.97 18.83 5.88C18.83 4.51 18.19 3.37 16.66 3.37ZM16.97 4.44C17.54 4.44 17.78 5.01 17.78 5.77C17.78 7.24 16.88 9.39 15.78 9.39C15.29 9.39 14.87 8.92 14.87 7.69C14.87 6.31 15.69 4.44 16.97 4.44ZM22.02 4.20C22.13 3.67 21.85 3.43 21.35 3.43C20.76 3.43 20.26 3.72 19.78 4.10C19.50 4.33 19.60 4.76 19.78 4.87C19.91 4.76 19.99 4.70 20.06 4.70C20.19 4.70 20.24 4.83 20.20 5.05L19.05 10.43C19.22 10.54 19.46 10.61 19.71 10.61C20.22 10.61 20.75 10.37 20.89 9.73L21.06 8.88C21.77 5.64 22.43 5.01 22.89 5.01C23.18 5.01 23.32 5.17 23.32 5.36C23.32 5.53 23.27 5.71 23.17 5.80C23.30 5.84 23.45 5.85 23.58 5.85C24.30 5.85 24.70 5.17 24.70 4.54C24.70 3.96 24.35 3.43 23.67 3.43C23.03 3.43 22.43 3.82 21.87 4.96ZM29.40 10.61C30.16 10.61 31.16 9.97 31.82 9.23C31.91 9.13 31.95 9.02 31.95 8.92C31.95 8.78 31.86 8.65 31.71 8.58C31.36 8.93 30.76 9.28 30.24 9.28C29.88 9.28 29.65 9.03 29.82 8.25L31.29 1.27C31.40 0.74 31.12 0.50 30.62 0.50C29.86 0.50 28.85 1.18 28.85 1.50C28.85 1.61 28.87 1.75 29.06 1.93C29.29 1.67 29.55 1.75 29.47 2.13L29.12 3.77C28.78 3.50 28.35 3.37 27.78 3.37C25.83 3.37 24.25 5.81 24.25 8.26C24.25 9.16 24.54 10.61 26.00 10.61C26.80 10.61 27.54 10.02 28.13 9.20C28.11 10.30 28.74 10.61 29.40 10.61ZM28.15 8.29C27.78 8.81 27.19 9.17 26.74 9.17C26.31 9.17 25.98 8.86 25.98 8.16C25.98 6.64 26.59 4.42 28.28 4.42C28.49 4.42 28.71 4.47 28.95 4.55L28.15 8.30ZM34.01 12.50C33.40 12.50 33.07 12.07 33.07 11.66C33.07 11.19 33.38 10.68 34.09 10.68C34.30 10.68 34.51 10.71 34.75 10.93C35.13 9.90 34.71 9.30 33.70 9.30C32.59 9.30 31.95 10.28 31.95 11.27C31.95 12.29 32.56 13.31 34.02 13.31C35.80 13.31 36.97 12.14 37.46 9.84L39.38 0.76C39.44 0.77 39.49 0.77 39.55 0.77C39.87 0.77 40.04 0.49 40.04 0.22C40.04 0.08 39.98-0.06 39.84-0.14C39.24 0.20 38.05-0.42 36.89-0.42C35.24-0.42 34.57 0.59 34.57 1.47C34.57 2.17 34.99 2.80 35.70 2.80C35.90 2.80 36.09 2.76 36.30 2.66C36.13 2.46 36.02 2.16 36.02 1.85C36.02 1.19 36.48 0.48 37.74 0.48L35.83 9.30C35.29 11.70 34.86 12.50 34.01 12.50ZM42.59 3.37C40.64 3.37 39.06 5.81 39.06 8.26C39.06 9.16 39.35 10.61 40.81 10.61C41.61 10.61 42.35 10.02 42.94 9.20C42.92 10.30 43.58 10.61 44.24 10.61C45.00 10.61 46.00 9.97 46.66 9.23C46.75 9.13 46.79 9.02 46.79 8.92C46.79 8.78 46.70 8.65 46.55 8.58C46.20 8.93 45.60 9.28 45.08 9.28C44.72 9.28 44.49 9.03 44.66 8.25L45.64 3.61C45.47 3.50 45.23 3.43 44.98 3.43C44.63 3.43 44.27 3.56 44.03 3.84C43.68 3.53 43.22 3.37 42.59 3.37ZM42.97 8.29C42.59 8.81 42 9.17 41.55 9.17C41.12 9.17 40.80 8.86 40.80 8.16C40.80 6.64 41.40 4.42 43.09 4.42C43.30 4.42 43.51 4.45 43.75 4.54ZM48.99 4.20C49.11 3.67 48.82 3.43 48.31 3.43C47.73 3.43 47.22 3.72 46.75 4.10C46.47 4.33 46.56 4.76 46.75 4.87C46.87 4.76 46.96 4.70 47.03 4.70C47.15 4.70 47.22 4.83 47.17 5.05L46.02 10.43C46.19 10.54 46.42 10.61 46.68 10.61C47.18 10.61 47.71 10.37 47.85 9.73L48.71 5.74C49.08 5.29 49.49 5.01 49.99 5.01C50.46 5.01 50.43 5.39 50.33 5.84L49.35 10.43C49.52 10.54 49.76 10.61 50.01 10.61C50.51 10.61 51.04 10.37 51.18 9.73L52.05 5.66C52.42 5.26 52.79 5.01 53.27 5.01C53.73 5.01 53.72 5.39 53.61 5.84L53.02 8.62C52.67 10.26 53.41 10.61 54.11 10.61C55.05 10.61 55.99 9.97 56.64 9.23C56.73 9.13 56.77 9.02 56.77 8.92C56.77 8.78 56.69 8.65 56.53 8.58C56.18 8.93 55.58 9.28 55.06 9.28C54.78 9.28 54.60 9.11 54.68 8.71L55.37 5.49C55.73 3.85 54.82 3.43 54.19 3.43C53.38 3.43 52.68 4.03 52.09 4.87C52.14 3.88 51.49 3.43 50.92 3.43C50.12 3.43 49.42 4.00 48.85 4.83Z"></path></g><defs data-v-fde0c5aa=""><!----></defs><g data-v-fde0c5aa="" id="b9127767-47bc-4803-a7e6-f92e8410f06c" stroke="none" fill="#FEFEFE" transform="matrix(0.3201083540916443,0,0,0.3201083540916443,61.88919828772839,6.0680345992481435)"><path d="M475.333 165.763c-19.725-19.73-54.636-4.045-67.785 16.188 0 0 54.891-4.04 54.891 50.584 23.266-23.271 37.422-42.232 12.894-66.772z"></path><path d="M433.951 199.876L274.509 353.437l17.458 12.079 4.18 18.214-10.258 10.934-16.692 5.562-24.285-24.279 3.044-13.155 169.2-169.194c-5.348-1.123-11.425-1.782-18.463-1.782l-158.84 158.837-16.418 60.508c-.98-.744-2.144-1.262-3.469-1.262h-.029c-101.314.347-131.092-21.085-132.733-33.911-1.591-12.417 19.068-30.634 68.816-43.338 26.601-6.792 38.243-14.374 37.751-24.587-1.138-23.567-87.586-39.473-124.7-45.217a5.834 5.834 0 0 0-6.665 4.876 5.84 5.84 0 0 0 4.876 6.664c59.593 9.223 114.322 25.542 114.826 34.229-.01.056-1.479 5.701-28.977 12.719-51.36 13.118-80.333 34.102-77.509 56.139 3.548 27.688 56.202 44.107 141.09 44.107 1.088 0 2.185-.003 3.281-.008.231 0 .429-.107.651-.137l-.009.035.871-.211c.272-.078.564-.087.819-.2l69.13-16.784L452.318 243.41c.003.001 5.687-29.03-18.367-43.534z"></path></g><defs data-v-fde0c5aa=""><!----></defs><g data-v-fde0c5aa="" id="23c3bfe7-6de6-4179-aae1-65f17cec0685" fill="#FEFEFE" transform="matrix(0.8295754194259644,0,0,0.8295754194259644,51.56257976108742,231.95313866207258)"><path d="M5.04 2.21L1.13 2.21L1.13 11.48L5.04 11.48C7.25 11.48 9.30 9.74 9.30 6.85C9.30 3.95 7.25 2.21 5.04 2.21ZM5.00 10.49L2.18 10.49L2.18 3.21L5.00 3.21C6.97 3.21 8.25 4.86 8.25 6.85C8.25 8.83 6.97 10.49 5.00 10.49ZM20.72 4.37C18.68 4.37 17.33 5.98 17.33 7.98C17.33 9.98 18.68 11.59 20.72 11.59C21.88 11.59 22.71 11.12 23.23 10.36L23.23 11.48L24.28 11.48L24.28 4.48L23.23 4.48L23.23 5.61C22.71 4.86 21.88 4.37 20.72 4.37ZM20.86 10.64C19.31 10.64 18.38 9.42 18.38 7.98C18.38 6.54 19.31 5.32 20.86 5.32C22.41 5.32 23.28 6.54 23.28 7.98C23.28 9.42 22.41 10.64 20.86 10.64ZM33.10 11.48L34.15 11.48L34.15 4.48L33.10 4.48ZM33.05 1.93L33.05 3.30L34.19 3.30L34.19 1.93ZM44.02 1.68L42.97 1.68L42.97 11.48L44.02 11.48ZM58.84 4.48L57.69 4.48L55.40 10.22L53.14 4.48L51.98 4.48L54.84 11.38L53.56 14.25L54.70 14.25ZM82.57 3.70L85.08 11.48L86.27 11.48L89.15 2.21L88.05 2.21L85.67 10.00L83.17 2.21L81.97 2.21L79.48 10.00L77.10 2.21L75.99 2.21L78.88 11.48L80.07 11.48ZM99.76 4.37C97.62 4.37 96.29 5.98 96.29 7.98C96.29 9.98 97.62 11.59 99.76 11.59C101.91 11.59 103.24 9.98 103.24 7.98C103.24 5.98 101.91 4.37 99.76 4.37ZM99.76 10.64C98.21 10.64 97.34 9.42 97.34 7.98C97.34 6.54 98.21 5.32 99.76 5.32C101.32 5.32 102.19 6.54 102.19 7.98C102.19 9.42 101.32 10.64 99.76 10.64ZM115.25 4.37C113.51 4.37 112.81 5.73 112.67 6.20L112.67 4.48L111.62 4.48L111.62 11.48L112.67 11.48L112.67 8.40C112.67 6.86 113.62 5.42 115.19 5.42L115.32 5.42L115.32 4.37ZM126.22 4.37C124.18 4.37 122.84 5.98 122.84 7.98C122.84 9.98 124.18 11.59 126.22 11.59C127.39 11.59 128.21 11.12 128.73 10.36L128.73 11.48L129.78 11.48L129.78 1.68L128.73 1.68L128.73 5.61C128.21 4.86 127.39 4.37 126.22 4.37ZM126.36 10.64C124.81 10.64 123.89 9.42 123.89 7.98C123.89 6.54 124.81 5.32 126.36 5.32C127.92 5.32 128.79 6.54 128.79 7.98C128.79 9.42 127.92 10.64 126.36 10.64ZM149.86 8.18L152.98 8.18C154.95 8.18 156.17 7.03 156.17 5.19C156.17 3.37 154.95 2.21 152.98 2.21L148.81 2.21L148.81 11.48L149.86 11.48ZM152.91 3.21C154.36 3.21 155.12 3.96 155.12 5.19C155.12 6.44 154.36 7.20 152.91 7.20L149.86 7.20L149.86 3.21ZM170.48 11.48L170.48 4.48L169.43 4.48L169.43 8.51C169.43 9.77 168.48 10.64 167.31 10.64C166.17 10.64 165.35 9.80 165.35 8.53L165.35 4.48L164.30 4.48L164.30 8.55C164.30 10.54 165.66 11.59 167.10 11.59C168.24 11.59 168.92 11.06 169.43 10.39L169.43 11.48ZM184.34 5.46L184.34 4.48L178.88 4.48L178.88 5.45L183.01 5.45L178.82 10.49L178.82 11.48L184.34 11.48L184.34 10.50L180.14 10.50ZM197.75 5.46L197.75 4.48L192.29 4.48L192.29 5.45L196.42 5.45L192.23 10.49L192.23 11.48L197.75 11.48L197.75 10.50L193.55 10.50ZM207.17 1.68L206.12 1.68L206.12 11.48L207.17 11.48ZM219.11 10.64C217.70 10.64 216.79 9.65 216.64 8.40L222.50 8.40L222.50 7.98C222.50 5.98 221.17 4.37 219.03 4.37C216.89 4.37 215.56 5.98 215.56 7.98C215.56 9.98 216.96 11.59 219.10 11.59C220.77 11.59 221.80 10.72 222.29 9.46L221.14 9.46C220.77 10.16 220.09 10.64 219.11 10.64ZM219.03 5.32C220.37 5.32 221.21 6.23 221.41 7.42L216.65 7.42C216.85 6.23 217.69 5.32 219.03 5.32ZM233.23 4.37C231.42 4.37 230.48 5.11 230.48 6.37C230.48 8.93 235.14 7.84 235.14 9.59C235.14 10.54 233.93 10.70 233.35 10.70C231.99 10.70 231.46 10.00 231.39 9.28L230.30 9.28C230.37 10.51 231.39 11.59 233.34 11.59C235.07 11.59 236.19 10.85 236.19 9.49C236.19 6.86 231.53 7.95 231.53 6.27C231.53 5.59 232.11 5.26 233.20 5.26C234.37 5.26 234.82 5.75 234.91 6.36L235.97 6.36C235.84 5.33 235.07 4.37 233.23 4.37Z"></path></g></svg>